<svg width="19" height="18" viewBox="0 0 19 18" fill="none" xmlns="http://www.w3.org/2000/svg">
<path d="M16.6227 12.328V14.5139C16.6236 14.7168 16.5806 14.9176 16.4964 15.1036C16.4123 15.2895 16.2889 15.4564 16.1342 15.5936C15.9795 15.7307 15.7968 15.8352 15.5978 15.9002C15.3989 15.9652 15.1881 15.9893 14.979 15.9711C12.6588 15.7275 10.4301 14.9613 8.47192 13.7342C6.65011 12.6156 5.10553 11.123 3.94787 9.36256C2.67359 7.46175 1.88057 5.29762 1.63307 3.04548C1.61423 2.84399 1.63901 2.64092 1.70584 2.4492C1.77266 2.25748 1.88006 2.0813 2.02121 1.93188C2.16236 1.78247 2.33415 1.66309 2.52566 1.58135C2.71717 1.49961 2.92419 1.45729 3.13355 1.4571H5.39557C5.76149 1.45362 6.11624 1.57884 6.39369 1.80941C6.67114 2.03998 6.85237 2.36018 6.90358 2.71032C6.99906 3.40983 7.17612 4.09667 7.43139 4.75772C7.53283 5.01851 7.55479 5.30193 7.49465 5.57441C7.43452 5.84689 7.29481 6.09699 7.09208 6.2951L6.13449 7.22043C7.20786 9.04455 8.77084 10.5549 10.6585 11.5921L11.6161 10.6668C11.8211 10.4709 12.08 10.3359 12.3619 10.2778C12.6439 10.2197 12.9372 10.2409 13.2071 10.3389C13.8912 10.5856 14.6019 10.7567 15.3258 10.8489C15.6921 10.8989 16.0266 11.0771 16.2657 11.3498C16.5049 11.6226 16.6319 11.9707 16.6227 12.328Z" stroke="white" stroke-linecap="round" stroke-linejoin="round"/>
</svg>
